<mxfile host="app.diagrams.net" agent="Mozilla/5.0 (Windows NT 10.0; Win64; x64) AppleWebKit/537.36 (KHTML, like Gecko) Chrome/140.0.0.0 Safari/537.36 Edg/140.0.0.0" version="28.2.5">
  <diagram name="Page-1" id="HuuY5TjzPm4l7IKNperw">
    <mxGraphModel dx="2297" dy="1154" grid="1" gridSize="10" guides="1" tooltips="1" connect="1" arrows="1" fold="1" page="1" pageScale="1" pageWidth="1100" pageHeight="850" math="0" shadow="0">
      <root>
        <mxCell id="0" />
        <mxCell id="1" parent="0" />
        <mxCell id="8HMqwPBP0j9roJxsPOvD-43" value="" style="group" vertex="1" connectable="0" parent="1">
          <mxGeometry x="60" y="80" width="940" height="590" as="geometry" />
        </mxCell>
        <mxCell id="8HMqwPBP0j9roJxsPOvD-1" value="MyRailway APIM Architecture" style="swimlane;childLayout=stackLayout;resizeParent=1;resizeParentMax=0;horizontal=1;startSize=20;horizontalStack=0;html=1;" vertex="1" parent="8HMqwPBP0j9roJxsPOvD-43">
          <mxGeometry width="940" height="340" as="geometry" />
        </mxCell>
        <mxCell id="8HMqwPBP0j9roJxsPOvD-2" value="Business Capabilities" style="swimlane;startSize=20;horizontal=0;html=1;" vertex="1" parent="8HMqwPBP0j9roJxsPOvD-1">
          <mxGeometry y="20" width="940" height="150" as="geometry" />
        </mxCell>
        <mxCell id="8HMqwPBP0j9roJxsPOvD-5" value="CAD" style="whiteSpace=wrap;html=1;" vertex="1" parent="8HMqwPBP0j9roJxsPOvD-2">
          <mxGeometry x="52.96" y="20" width="207.04" height="30" as="geometry" />
        </mxCell>
        <mxCell id="8HMqwPBP0j9roJxsPOvD-6" value="TMDS" style="whiteSpace=wrap;html=1;" vertex="1" parent="8HMqwPBP0j9roJxsPOvD-2">
          <mxGeometry x="357.46478873239437" y="20" width="158.8732394366197" height="30" as="geometry" />
        </mxCell>
        <mxCell id="8HMqwPBP0j9roJxsPOvD-7" value="MP" style="whiteSpace=wrap;html=1;" vertex="1" parent="8HMqwPBP0j9roJxsPOvD-2">
          <mxGeometry x="529.5774647887324" y="20" width="158.8732394366197" height="30" as="geometry" />
        </mxCell>
        <mxCell id="8HMqwPBP0j9roJxsPOvD-8" value="Schedule" style="whiteSpace=wrap;html=1;" vertex="1" parent="8HMqwPBP0j9roJxsPOvD-2">
          <mxGeometry x="52.95774647887324" y="60" width="70" height="30" as="geometry" />
        </mxCell>
        <mxCell id="8HMqwPBP0j9roJxsPOvD-9" value="GTB" style="whiteSpace=wrap;html=1;" vertex="1" parent="8HMqwPBP0j9roJxsPOvD-2">
          <mxGeometry x="140.00267605633803" y="60" width="50" height="30" as="geometry" />
        </mxCell>
        <mxCell id="8HMqwPBP0j9roJxsPOvD-10" value="Crew" style="whiteSpace=wrap;html=1;" vertex="1" parent="8HMqwPBP0j9roJxsPOvD-2">
          <mxGeometry x="209.99873239436621" y="60" width="50" height="30" as="geometry" />
        </mxCell>
        <mxCell id="8HMqwPBP0j9roJxsPOvD-3" value="Environments" style="swimlane;startSize=20;horizontal=0;html=1;" vertex="1" parent="8HMqwPBP0j9roJxsPOvD-1">
          <mxGeometry y="170" width="940" height="80" as="geometry" />
        </mxCell>
        <mxCell id="8HMqwPBP0j9roJxsPOvD-15" value="Dev" style="whiteSpace=wrap;html=1;" vertex="1" parent="8HMqwPBP0j9roJxsPOvD-3">
          <mxGeometry x="89.99774647887324" y="25" width="52.95774647887324" height="30" as="geometry" />
        </mxCell>
        <mxCell id="8HMqwPBP0j9roJxsPOvD-16" value="Trial" style="whiteSpace=wrap;html=1;" vertex="1" parent="8HMqwPBP0j9roJxsPOvD-3">
          <mxGeometry x="156.1949295774648" y="25" width="66.19718309859155" height="30" as="geometry" />
        </mxCell>
        <mxCell id="8HMqwPBP0j9roJxsPOvD-17" value="Prod" style="whiteSpace=wrap;html=1;" vertex="1" parent="8HMqwPBP0j9roJxsPOvD-3">
          <mxGeometry x="690.000985915493" y="30" width="66.19718309859155" height="30" as="geometry" />
        </mxCell>
        <mxCell id="8HMqwPBP0j9roJxsPOvD-18" value="DR" style="whiteSpace=wrap;html=1;" vertex="1" parent="8HMqwPBP0j9roJxsPOvD-3">
          <mxGeometry x="839.9976056338028" y="30" width="52.95774647887324" height="30" as="geometry" />
        </mxCell>
        <mxCell id="8HMqwPBP0j9roJxsPOvD-59" value="Staging" style="whiteSpace=wrap;html=1;" vertex="1" parent="8HMqwPBP0j9roJxsPOvD-3">
          <mxGeometry x="340" y="25" width="66.19718309859155" height="30" as="geometry" />
        </mxCell>
        <mxCell id="8HMqwPBP0j9roJxsPOvD-60" value="Labs" style="whiteSpace=wrap;html=1;" vertex="1" parent="8HMqwPBP0j9roJxsPOvD-3">
          <mxGeometry x="419.4366197183099" y="25" width="52.95774647887324" height="30" as="geometry" />
        </mxCell>
        <mxCell id="8HMqwPBP0j9roJxsPOvD-61" value="Interop" style="whiteSpace=wrap;html=1;" vertex="1" parent="8HMqwPBP0j9roJxsPOvD-3">
          <mxGeometry x="486" y="25" width="52.95774647887324" height="30" as="geometry" />
        </mxCell>
        <mxCell id="8HMqwPBP0j9roJxsPOvD-78" value="Load Test" style="whiteSpace=wrap;html=1;" vertex="1" parent="8HMqwPBP0j9roJxsPOvD-3">
          <mxGeometry x="550" y="25" width="60" height="30" as="geometry" />
        </mxCell>
        <mxCell id="8HMqwPBP0j9roJxsPOvD-4" value="APIM Instances" style="swimlane;startSize=20;horizontal=0;html=1;" vertex="1" parent="8HMqwPBP0j9roJxsPOvD-1">
          <mxGeometry y="250" width="940" height="90" as="geometry" />
        </mxCell>
        <mxCell id="8HMqwPBP0j9roJxsPOvD-23" value="NP Shared Dev" style="whiteSpace=wrap;html=1;" vertex="1" parent="8HMqwPBP0j9roJxsPOvD-4">
          <mxGeometry x="29.99774647887324" y="24" width="278.0281690140845" height="30" as="geometry" />
        </mxCell>
        <mxCell id="8HMqwPBP0j9roJxsPOvD-24" value="Prod Prem (US-SC)" style="whiteSpace=wrap;html=1;" vertex="1" parent="8HMqwPBP0j9roJxsPOvD-4">
          <mxGeometry x="650" y="24" width="140" height="30" as="geometry" />
        </mxCell>
        <mxCell id="8HMqwPBP0j9roJxsPOvD-25" value="DR Prem (US-E)&amp;nbsp;" style="whiteSpace=wrap;html=1;" vertex="1" parent="8HMqwPBP0j9roJxsPOvD-4">
          <mxGeometry x="810" y="24" width="116.76" height="30" as="geometry" />
        </mxCell>
        <mxCell id="8HMqwPBP0j9roJxsPOvD-44" value="NP Shared Std" style="whiteSpace=wrap;html=1;" vertex="1" parent="8HMqwPBP0j9roJxsPOvD-4">
          <mxGeometry x="330.99" y="24" width="278.0281690140845" height="30" as="geometry" />
        </mxCell>
        <mxCell id="8HMqwPBP0j9roJxsPOvD-26" value="Products &amp;amp; APIs" style="swimlane;startSize=20;horizontal=0;html=1;" vertex="1" parent="8HMqwPBP0j9roJxsPOvD-43">
          <mxGeometry y="340" width="940" height="120" as="geometry" />
        </mxCell>
        <mxCell id="8HMqwPBP0j9roJxsPOvD-30" value="CAD - Dev" style="whiteSpace=wrap;html=1;" vertex="1" parent="8HMqwPBP0j9roJxsPOvD-26">
          <mxGeometry x="52.96" y="20" width="197.04" height="30" as="geometry" />
        </mxCell>
        <mxCell id="8HMqwPBP0j9roJxsPOvD-32" value="CAD - Trial" style="whiteSpace=wrap;html=1;" vertex="1" parent="8HMqwPBP0j9roJxsPOvD-26">
          <mxGeometry x="270" y="20" width="200" height="30" as="geometry" />
        </mxCell>
        <mxCell id="8HMqwPBP0j9roJxsPOvD-33" value="CAD - Mock" style="whiteSpace=wrap;html=1;" vertex="1" parent="8HMqwPBP0j9roJxsPOvD-26">
          <mxGeometry x="490" y="20" width="200" height="30" as="geometry" />
        </mxCell>
        <mxCell id="8HMqwPBP0j9roJxsPOvD-46" value="Schedule" style="whiteSpace=wrap;html=1;" vertex="1" parent="8HMqwPBP0j9roJxsPOvD-26">
          <mxGeometry x="52.96000000000001" y="60" width="70" height="30" as="geometry" />
        </mxCell>
        <mxCell id="8HMqwPBP0j9roJxsPOvD-47" value="GTB" style="whiteSpace=wrap;html=1;" vertex="1" parent="8HMqwPBP0j9roJxsPOvD-26">
          <mxGeometry x="134.99577464788737" y="60" width="50" height="30" as="geometry" />
        </mxCell>
        <mxCell id="8HMqwPBP0j9roJxsPOvD-48" value="Crew" style="whiteSpace=wrap;html=1;" vertex="1" parent="8HMqwPBP0j9roJxsPOvD-26">
          <mxGeometry x="200.00154929577474" y="60" width="50" height="30" as="geometry" />
        </mxCell>
        <mxCell id="8HMqwPBP0j9roJxsPOvD-49" value="Schedule" style="whiteSpace=wrap;html=1;" vertex="1" parent="8HMqwPBP0j9roJxsPOvD-26">
          <mxGeometry x="270" y="60" width="70" height="30" as="geometry" />
        </mxCell>
        <mxCell id="8HMqwPBP0j9roJxsPOvD-50" value="GTB" style="whiteSpace=wrap;html=1;" vertex="1" parent="8HMqwPBP0j9roJxsPOvD-26">
          <mxGeometry x="352.03577464788737" y="60" width="50" height="30" as="geometry" />
        </mxCell>
        <mxCell id="8HMqwPBP0j9roJxsPOvD-51" value="Crew" style="whiteSpace=wrap;html=1;" vertex="1" parent="8HMqwPBP0j9roJxsPOvD-26">
          <mxGeometry x="417.04154929577476" y="60" width="50" height="30" as="geometry" />
        </mxCell>
        <mxCell id="8HMqwPBP0j9roJxsPOvD-52" value="Schedule" style="whiteSpace=wrap;html=1;" vertex="1" parent="8HMqwPBP0j9roJxsPOvD-26">
          <mxGeometry x="490" y="60" width="70" height="30" as="geometry" />
        </mxCell>
        <mxCell id="8HMqwPBP0j9roJxsPOvD-53" value="GTB" style="whiteSpace=wrap;html=1;" vertex="1" parent="8HMqwPBP0j9roJxsPOvD-26">
          <mxGeometry x="572.0357746478874" y="60" width="50" height="30" as="geometry" />
        </mxCell>
        <mxCell id="8HMqwPBP0j9roJxsPOvD-54" value="Crew" style="whiteSpace=wrap;html=1;" vertex="1" parent="8HMqwPBP0j9roJxsPOvD-26">
          <mxGeometry x="637.0415492957748" y="60" width="50" height="30" as="geometry" />
        </mxCell>
        <mxCell id="8HMqwPBP0j9roJxsPOvD-55" value="CAD - B2B" style="whiteSpace=wrap;html=1;" vertex="1" parent="8HMqwPBP0j9roJxsPOvD-26">
          <mxGeometry x="710" y="20" width="200" height="30" as="geometry" />
        </mxCell>
        <mxCell id="8HMqwPBP0j9roJxsPOvD-56" value="UMLER" style="whiteSpace=wrap;html=1;" vertex="1" parent="8HMqwPBP0j9roJxsPOvD-26">
          <mxGeometry x="730.74" y="60" width="70" height="30" as="geometry" />
        </mxCell>
        <mxCell id="8HMqwPBP0j9roJxsPOvD-57" value="Locomotive" style="whiteSpace=wrap;html=1;" vertex="1" parent="8HMqwPBP0j9roJxsPOvD-26">
          <mxGeometry x="812.78" y="60" width="76.48" height="30" as="geometry" />
        </mxCell>
        <mxCell id="8HMqwPBP0j9roJxsPOvD-62" value="Backend" style="swimlane;startSize=20;horizontal=0;html=1;" vertex="1" parent="8HMqwPBP0j9roJxsPOvD-43">
          <mxGeometry y="460" width="940" height="120" as="geometry" />
        </mxCell>
        <mxCell id="8HMqwPBP0j9roJxsPOvD-63" value="CAD - Dev" style="whiteSpace=wrap;html=1;" vertex="1" parent="8HMqwPBP0j9roJxsPOvD-62">
          <mxGeometry x="52.96" y="20" width="197.04" height="30" as="geometry" />
        </mxCell>
        <mxCell id="8HMqwPBP0j9roJxsPOvD-64" value="CAD - Trial" style="whiteSpace=wrap;html=1;" vertex="1" parent="8HMqwPBP0j9roJxsPOvD-62">
          <mxGeometry x="270" y="20" width="200" height="30" as="geometry" />
        </mxCell>
        <mxCell id="8HMqwPBP0j9roJxsPOvD-66" value="Schedule" style="whiteSpace=wrap;html=1;" vertex="1" parent="8HMqwPBP0j9roJxsPOvD-62">
          <mxGeometry x="52.96000000000001" y="60" width="70" height="30" as="geometry" />
        </mxCell>
        <mxCell id="8HMqwPBP0j9roJxsPOvD-67" value="GTB" style="whiteSpace=wrap;html=1;" vertex="1" parent="8HMqwPBP0j9roJxsPOvD-62">
          <mxGeometry x="134.99577464788737" y="60" width="50" height="30" as="geometry" />
        </mxCell>
        <mxCell id="8HMqwPBP0j9roJxsPOvD-68" value="Crew" style="whiteSpace=wrap;html=1;" vertex="1" parent="8HMqwPBP0j9roJxsPOvD-62">
          <mxGeometry x="200.00154929577474" y="60" width="50" height="30" as="geometry" />
        </mxCell>
        <mxCell id="8HMqwPBP0j9roJxsPOvD-69" value="Schedule" style="whiteSpace=wrap;html=1;" vertex="1" parent="8HMqwPBP0j9roJxsPOvD-62">
          <mxGeometry x="270" y="60" width="70" height="30" as="geometry" />
        </mxCell>
        <mxCell id="8HMqwPBP0j9roJxsPOvD-70" value="GTB" style="whiteSpace=wrap;html=1;" vertex="1" parent="8HMqwPBP0j9roJxsPOvD-62">
          <mxGeometry x="352.03577464788737" y="60" width="50" height="30" as="geometry" />
        </mxCell>
        <mxCell id="8HMqwPBP0j9roJxsPOvD-71" value="Crew" style="whiteSpace=wrap;html=1;" vertex="1" parent="8HMqwPBP0j9roJxsPOvD-62">
          <mxGeometry x="417.04154929577476" y="60" width="50" height="30" as="geometry" />
        </mxCell>
        <mxCell id="8HMqwPBP0j9roJxsPOvD-80" value="CAD - Load Test" style="whiteSpace=wrap;html=1;" vertex="1" parent="8HMqwPBP0j9roJxsPOvD-62">
          <mxGeometry x="490" y="20" width="200" height="30" as="geometry" />
        </mxCell>
        <mxCell id="8HMqwPBP0j9roJxsPOvD-81" value="Schedule" style="whiteSpace=wrap;html=1;" vertex="1" parent="8HMqwPBP0j9roJxsPOvD-62">
          <mxGeometry x="490" y="60" width="70" height="30" as="geometry" />
        </mxCell>
        <mxCell id="8HMqwPBP0j9roJxsPOvD-82" value="GTB" style="whiteSpace=wrap;html=1;" vertex="1" parent="8HMqwPBP0j9roJxsPOvD-62">
          <mxGeometry x="572.0357746478874" y="60" width="50" height="30" as="geometry" />
        </mxCell>
        <mxCell id="8HMqwPBP0j9roJxsPOvD-83" value="Crew" style="whiteSpace=wrap;html=1;" vertex="1" parent="8HMqwPBP0j9roJxsPOvD-62">
          <mxGeometry x="637.0415492957748" y="60" width="50" height="30" as="geometry" />
        </mxCell>
      </root>
    </mxGraphModel>
  </diagram>
</mxfile>
